<?xml version="1.0" encoding="UTF-8" standalone="no"?>
<!-- Created with Inkscape (http://www.inkscape.org/) -->

<svg
   xmlns:dc="http://purl.org/dc/elements/1.1/"
   xmlns:cc="http://creativecommons.org/ns#"
   xmlns:rdf="http://www.w3.org/1999/02/22-rdf-syntax-ns#"
   xmlns:svg="http://www.w3.org/2000/svg"
   xmlns="http://www.w3.org/2000/svg"
   xmlns:sodipodi="http://sodipodi.sourceforge.net/DTD/sodipodi-0.dtd"
   xmlns:inkscape="http://www.inkscape.org/namespaces/inkscape"
   width="49.57309mm"
   height="49.605232mm"
   viewBox="0 0 175.65268 175.76657"
   id="svg2"
   version="1.1"
   inkscape:version="0.91 r13725"
   inkscape:export-filename="/Users/ntv489/SH2_vagrant/shared/sh2db/static/home/images/logo.png"
   inkscape:export-xdpi="99.848358"
   inkscape:export-ydpi="99.848358"
   sodipodi:docname="logo.svg">
  <defs
     id="defs4" />
  <sodipodi:namedview
     id="base"
     pagecolor="#ffffff"
     bordercolor="#666666"
     borderopacity="1.0"
     inkscape:pageopacity="0.0"
     inkscape:pageshadow="2"
     inkscape:zoom="0.98994949"
     inkscape:cx="93.709178"
     inkscape:cy="0.86070648"
     inkscape:document-units="px"
     inkscape:current-layer="layer1"
     showgrid="false"
     fit-margin-top="0"
     fit-margin-left="0"
     fit-margin-right="0"
     fit-margin-bottom="0"
     inkscape:window-width="1636"
     inkscape:window-height="1005"
     inkscape:window-x="44"
     inkscape:window-y="1"
     inkscape:window-maximized="1" />
  <metadata
     id="metadata7">
    <rdf:RDF>
      <cc:Work
         rdf:about="">
        <dc:format>image/svg+xml</dc:format>
        <dc:type
           rdf:resource="http://purl.org/dc/dcmitype/StillImage" />
        <dc:title></dc:title>
      </cc:Work>
    </rdf:RDF>
  </metadata>
  <g
     inkscape:label="Layer 1"
     inkscape:groupmode="layer"
     id="layer1"
     transform="translate(-218.35488,-179.59041)">
    <rect
       style="opacity:1;fill:#db4e53;fill-opacity:1;stroke:none;stroke-width:0.875;stroke-linecap:round;stroke-linejoin:miter;stroke-miterlimit:4;stroke-dasharray:none;stroke-dashoffset:0;stroke-opacity:1"
       id="rect4136"
       width="21.21319"
       height="175.76657"
       x="295.57462"
       y="179.59041"
       ry="6.0714288" />
    <rect
       style="opacity:1;fill:#db4e53;fill-opacity:1;stroke:none;stroke-width:0.875;stroke-linecap:round;stroke-linejoin:miter;stroke-miterlimit:4;stroke-dasharray:none;stroke-dashoffset:0;stroke-opacity:1"
       id="rect4136-2"
       width="21.21319"
       height="132.90942"
       x="268.58966"
       y="202.1575"
       ry="4.591033" />
    <rect
       style="opacity:1;fill:#db4e53;fill-opacity:1;stroke:none;stroke-width:0.875;stroke-linecap:round;stroke-linejoin:miter;stroke-miterlimit:4;stroke-dasharray:none;stroke-dashoffset:0;stroke-opacity:1"
       id="rect4136-2-9"
       width="21.21319"
       height="132.90942"
       x="322.55957"
       y="202.1575"
       ry="4.591033" />
    <path
       style="opacity:1;fill:#db4e53;fill-opacity:1;stroke:none;stroke-width:0.875;stroke-linecap:round;stroke-linejoin:miter;stroke-miterlimit:4;stroke-dasharray:none;stroke-dashoffset:0;stroke-opacity:1"
       d="m 221.76113,219.11894 c -1.88732,0 -3.40625,1.51893 -3.40625,3.40625 l 0,21.25 43.71289,-19.80078 0,-1.44922 c 0,-1.88732 -1.51893,-3.40625 -3.40625,-3.40625 l -36.90039,0 z m 40.30664,16.14062 -43.71289,19.80078 0,16.8125 43.71289,-19.80078 0,-16.8125 z m 0,28.09961 -43.71289,19.80078 0,17.68164 43.71289,-19.80078 0,-17.68164 z m 0,28.96875 -43.71289,19.80078 0,2.20703 c 0,1.88733 1.51893,3.40625 3.40625,3.40625 l 36.90039,0 c 1.88732,0 3.40625,-1.51892 3.40625,-3.40625 l 0,-22.00781 z"
       id="rect4136-2-0"
       inkscape:connector-curvature="0" />
    <path
       style="opacity:1;fill:#db4e53;fill-opacity:1;stroke:none;stroke-width:0.875;stroke-linecap:round;stroke-linejoin:miter;stroke-miterlimit:4;stroke-dasharray:none;stroke-dashoffset:0;stroke-opacity:1"
       d="m 353.70092,219.11916 c -1.88732,0 -3.40625,1.51893 -3.40625,3.40625 l 0,21.25 43.71289,-19.80078 0,-1.44922 c 0,-1.88732 -1.51893,-3.40625 -3.40625,-3.40625 l -36.90039,0 z m 40.30664,16.14062 -43.71289,19.80078 0,16.8125 43.71289,-19.80078 0,-16.8125 z m 0,28.09961 -43.71289,19.80078 0,17.68164 43.71289,-19.80078 0,-17.68164 z m 0,28.96875 -43.71289,19.80078 0,2.20703 c 0,1.88733 1.51893,3.40625 3.40625,3.40625 l 36.90039,0 c 1.88732,0 3.40625,-1.51892 3.40625,-3.40625 l 0,-22.00781 z"
       id="rect4136-2-0-3"
       inkscape:connector-curvature="0" />
  </g>
</svg>
